<svg width="47" height="41" viewBox="0 0 47 41" fill="none" xmlns="http://www.w3.org/2000/svg">
<path d="M31.7005 4.5H16.2787C15.0619 4.5 14.0755 5.50736 14.0755 6.75V22.5C14.0755 23.7426 15.0619 24.75 16.2787 24.75H31.7005C32.9173 24.75 33.9037 23.7426 33.9037 22.5V6.75C33.9037 5.50736 32.9173 4.5 31.7005 4.5Z" stroke="#454D46" stroke-width="2" stroke-linecap="round" stroke-linejoin="round"/>
<path d="M28.3958 2.24999V6.74999" stroke="#454D46" stroke-width="2" stroke-linecap="round" stroke-linejoin="round"/>
<path d="M19.5833 2.24999V6.74999" stroke="#454D46" stroke-width="2" stroke-linecap="round" stroke-linejoin="round"/>
<path d="M14.0755 11.25H33.9037" stroke="#454D46" stroke-width="2" stroke-linecap="round" stroke-linejoin="round"/>
<path d="M8.44141 37.6855H9.66211C9.62305 38.151 9.49284 38.5661 9.27148 38.9307C9.05013 39.292 8.73926 39.5768 8.33887 39.7852C7.93848 39.9935 7.45182 40.0977 6.87891 40.0977C6.43945 40.0977 6.04395 40.0195 5.69238 39.8633C5.34082 39.7038 5.03971 39.4792 4.78906 39.1895C4.53841 38.8965 4.34635 38.5433 4.21289 38.1299C4.08268 37.7165 4.01758 37.2542 4.01758 36.7432V36.1523C4.01758 35.6413 4.08431 35.179 4.21777 34.7656C4.35449 34.3522 4.5498 33.999 4.80371 33.7061C5.05762 33.4098 5.36198 33.1836 5.7168 33.0273C6.07487 32.8711 6.47689 32.793 6.92285 32.793C7.48926 32.793 7.96777 32.8971 8.3584 33.1055C8.74902 33.3138 9.05176 33.6019 9.2666 33.9697C9.4847 34.3376 9.61816 34.7591 9.66699 35.2344H8.44629C8.41374 34.9284 8.34212 34.6663 8.23145 34.4482C8.12402 34.2301 7.96452 34.0641 7.75293 33.9502C7.54134 33.833 7.26465 33.7744 6.92285 33.7744C6.6429 33.7744 6.39876 33.8265 6.19043 33.9307C5.9821 34.0348 5.80794 34.1878 5.66797 34.3896C5.52799 34.5915 5.4222 34.8405 5.35059 35.1367C5.28223 35.4297 5.24805 35.765 5.24805 36.1426V36.7432C5.24805 37.1012 5.27897 37.4268 5.34082 37.7197C5.40592 38.0094 5.50358 38.2585 5.63379 38.4668C5.76725 38.6751 5.93652 38.8363 6.1416 38.9502C6.34668 39.0641 6.59245 39.1211 6.87891 39.1211C7.22721 39.1211 7.50879 39.0658 7.72363 38.9551C7.94173 38.8444 8.10612 38.6833 8.2168 38.4717C8.33073 38.2568 8.4056 37.9948 8.44141 37.6855ZM13.6367 38.9404V36.4209C13.6367 36.2321 13.6025 36.0693 13.5342 35.9326C13.4658 35.7959 13.3617 35.6901 13.2217 35.6152C13.085 35.5404 12.9124 35.5029 12.7041 35.5029C12.512 35.5029 12.346 35.5355 12.2061 35.6006C12.0661 35.6657 11.957 35.7536 11.8789 35.8643C11.8008 35.9749 11.7617 36.1003 11.7617 36.2402H10.5898C10.5898 36.0319 10.6403 35.8301 10.7412 35.6348C10.8421 35.4395 10.9886 35.2653 11.1807 35.1123C11.3727 34.9593 11.6022 34.8389 11.8691 34.751C12.1361 34.6631 12.4355 34.6191 12.7676 34.6191C13.1647 34.6191 13.5163 34.6859 13.8223 34.8193C14.1315 34.9528 14.374 35.1546 14.5498 35.4248C14.7288 35.6917 14.8184 36.027 14.8184 36.4307V38.7793C14.8184 39.0202 14.8346 39.2367 14.8672 39.4287C14.903 39.6175 14.9535 39.7819 15.0186 39.9219V40H13.8125C13.7572 39.873 13.7132 39.7119 13.6807 39.5166C13.6514 39.318 13.6367 39.126 13.6367 38.9404ZM13.8076 36.7871L13.8174 37.5146H12.9727C12.7546 37.5146 12.5625 37.5358 12.3965 37.5781C12.2305 37.6172 12.0921 37.6758 11.9814 37.7539C11.8708 37.832 11.7878 37.9264 11.7324 38.0371C11.6771 38.1478 11.6494 38.2731 11.6494 38.4131C11.6494 38.5531 11.682 38.6816 11.7471 38.7988C11.8122 38.9128 11.9066 39.0023 12.0303 39.0674C12.1572 39.1325 12.3102 39.165 12.4893 39.165C12.7301 39.165 12.9401 39.1162 13.1191 39.0186C13.3014 38.9176 13.4447 38.7956 13.5488 38.6523C13.653 38.5059 13.7083 38.3675 13.7148 38.2373L14.0957 38.7598C14.0566 38.8932 13.9899 39.0365 13.8955 39.1895C13.8011 39.3424 13.6774 39.4889 13.5244 39.6289C13.3747 39.7656 13.194 39.8779 12.9824 39.9658C12.7741 40.0537 12.5332 40.0977 12.2598 40.0977C11.9147 40.0977 11.6071 40.0293 11.3369 39.8926C11.0667 39.7526 10.8551 39.5654 10.7021 39.3311C10.5492 39.0934 10.4727 38.8249 10.4727 38.5254C10.4727 38.2454 10.5247 37.998 10.6289 37.7832C10.7363 37.5651 10.8926 37.3828 11.0977 37.2363C11.306 37.0898 11.5599 36.9792 11.8594 36.9043C12.1589 36.8262 12.5007 36.7871 12.8848 36.7871H13.8076ZM17.3086 32.5V40H16.127V32.5H17.3086ZM20.9268 40.0977C20.5361 40.0977 20.1829 40.0342 19.8672 39.9072C19.5547 39.777 19.2878 39.5964 19.0664 39.3652C18.8483 39.1341 18.6807 38.8623 18.5635 38.5498C18.4463 38.2373 18.3877 37.9004 18.3877 37.5391V37.3438C18.3877 36.9303 18.4479 36.556 18.5684 36.2207C18.6888 35.8854 18.8564 35.599 19.0713 35.3613C19.2861 35.1204 19.54 34.9365 19.833 34.8096C20.126 34.6826 20.4434 34.6191 20.7852 34.6191C21.1628 34.6191 21.4932 34.6826 21.7764 34.8096C22.0596 34.9365 22.2939 35.1156 22.4795 35.3467C22.6683 35.5745 22.8083 35.8464 22.8994 36.1621C22.9938 36.4779 23.041 36.8262 23.041 37.207V37.71H18.959V36.8652H21.8789V36.7725C21.8724 36.5609 21.8301 36.3623 21.752 36.1768C21.6771 35.9912 21.5615 35.8415 21.4053 35.7275C21.249 35.6136 21.0407 35.5566 20.7803 35.5566C20.585 35.5566 20.4108 35.599 20.2578 35.6836C20.1081 35.765 19.9827 35.8838 19.8818 36.04C19.7809 36.1963 19.7028 36.3851 19.6475 36.6064C19.5954 36.8245 19.5693 37.0703 19.5693 37.3438V37.5391C19.5693 37.7702 19.6003 37.985 19.6621 38.1836C19.7272 38.3789 19.8216 38.5498 19.9453 38.6963C20.069 38.8428 20.2188 38.9583 20.3945 39.043C20.5703 39.1243 20.7705 39.165 20.9951 39.165C21.2783 39.165 21.5306 39.1081 21.752 38.9941C21.9733 38.8802 22.1654 38.7191 22.3281 38.5107L22.9482 39.1113C22.8343 39.2773 22.6862 39.4368 22.5039 39.5898C22.3216 39.7396 22.0986 39.8617 21.835 39.9561C21.5745 40.0505 21.2718 40.0977 20.9268 40.0977ZM25.126 35.8447V40H23.9492V34.7168H25.0576L25.126 35.8447ZM24.916 37.1631L24.5352 37.1582C24.5384 36.7839 24.5905 36.4404 24.6914 36.1279C24.7956 35.8154 24.9388 35.5469 25.1211 35.3223C25.3066 35.0977 25.528 34.9251 25.7852 34.8047C26.0423 34.681 26.3288 34.6191 26.6445 34.6191C26.8984 34.6191 27.1279 34.6549 27.333 34.7266C27.5413 34.7949 27.7188 34.9072 27.8652 35.0635C28.015 35.2197 28.1289 35.4232 28.207 35.6738C28.2852 35.9212 28.3242 36.2256 28.3242 36.5869V40H27.1426V36.582C27.1426 36.3281 27.1051 36.1279 27.0303 35.9814C26.9587 35.8317 26.8529 35.7259 26.7129 35.6641C26.5762 35.599 26.4053 35.5664 26.2002 35.5664C25.9984 35.5664 25.8177 35.6087 25.6582 35.6934C25.4987 35.778 25.3636 35.8936 25.2529 36.04C25.1455 36.1865 25.0625 36.3558 25.0039 36.5479C24.9453 36.7399 24.916 36.945 24.916 37.1631ZM32.748 38.9062V32.5H33.9297V40H32.8604L32.748 38.9062ZM29.3105 37.417V37.3145C29.3105 36.9141 29.3577 36.5495 29.4521 36.2207C29.5465 35.8887 29.6833 35.6038 29.8623 35.3662C30.0413 35.1253 30.2594 34.9414 30.5166 34.8145C30.7738 34.6842 31.0635 34.6191 31.3857 34.6191C31.7048 34.6191 31.9847 34.681 32.2256 34.8047C32.4665 34.9284 32.6715 35.1058 32.8408 35.3369C33.0101 35.5648 33.1452 35.8382 33.2461 36.1572C33.347 36.473 33.4186 36.8245 33.4609 37.2119V37.5391C33.4186 37.9167 33.347 38.2617 33.2461 38.5742C33.1452 38.8867 33.0101 39.1569 32.8408 39.3848C32.6715 39.6126 32.4648 39.7884 32.2207 39.9121C31.9798 40.0358 31.6982 40.0977 31.376 40.0977C31.057 40.0977 30.7689 40.0309 30.5117 39.8975C30.2578 39.764 30.0413 39.5768 29.8623 39.3359C29.6833 39.0951 29.5465 38.8118 29.4521 38.4863C29.3577 38.1576 29.3105 37.8011 29.3105 37.417ZM30.4873 37.3145V37.417C30.4873 37.6579 30.5085 37.8825 30.5508 38.0908C30.5964 38.2992 30.6663 38.4831 30.7607 38.6426C30.8551 38.7988 30.9772 38.9225 31.127 39.0137C31.2799 39.1016 31.4622 39.1455 31.6738 39.1455C31.9408 39.1455 32.1605 39.0869 32.333 38.9697C32.5055 38.8525 32.6406 38.6947 32.7383 38.4961C32.8392 38.2943 32.9076 38.0697 32.9434 37.8223V36.9385C32.9238 36.7464 32.8831 36.5674 32.8213 36.4014C32.7627 36.2354 32.6829 36.0905 32.582 35.9668C32.4811 35.8398 32.3558 35.7422 32.2061 35.6738C32.0596 35.6022 31.8854 35.5664 31.6836 35.5664C31.4688 35.5664 31.2865 35.612 31.1367 35.7031C30.987 35.7943 30.8633 35.9196 30.7656 36.0791C30.6712 36.2386 30.6012 36.4242 30.5557 36.6357C30.5101 36.8473 30.4873 37.0736 30.4873 37.3145ZM38.1387 38.9404V36.4209C38.1387 36.2321 38.1045 36.0693 38.0361 35.9326C37.9678 35.7959 37.8636 35.6901 37.7236 35.6152C37.5869 35.5404 37.4144 35.5029 37.2061 35.5029C37.014 35.5029 36.848 35.5355 36.708 35.6006C36.568 35.6657 36.459 35.7536 36.3809 35.8643C36.3027 35.9749 36.2637 36.1003 36.2637 36.2402H35.0918C35.0918 36.0319 35.1423 35.8301 35.2432 35.6348C35.3441 35.4395 35.4906 35.2653 35.6826 35.1123C35.8747 34.9593 36.1042 34.8389 36.3711 34.751C36.638 34.6631 36.9375 34.6191 37.2695 34.6191C37.6667 34.6191 38.0182 34.6859 38.3242 34.8193C38.6335 34.9528 38.876 35.1546 39.0518 35.4248C39.2308 35.6917 39.3203 36.027 39.3203 36.4307V38.7793C39.3203 39.0202 39.3366 39.2367 39.3691 39.4287C39.4049 39.6175 39.4554 39.7819 39.5205 39.9219V40H38.3145C38.2591 39.873 38.2152 39.7119 38.1826 39.5166C38.1533 39.318 38.1387 39.126 38.1387 38.9404ZM38.3096 36.7871L38.3193 37.5146H37.4746C37.2565 37.5146 37.0645 37.5358 36.8984 37.5781C36.7324 37.6172 36.5941 37.6758 36.4834 37.7539C36.3727 37.832 36.2897 37.9264 36.2344 38.0371C36.179 38.1478 36.1514 38.2731 36.1514 38.4131C36.1514 38.5531 36.1839 38.6816 36.249 38.7988C36.3141 38.9128 36.4085 39.0023 36.5322 39.0674C36.6592 39.1325 36.8122 39.165 36.9912 39.165C37.2321 39.165 37.4421 39.1162 37.6211 39.0186C37.8034 38.9176 37.9466 38.7956 38.0508 38.6523C38.1549 38.5059 38.2103 38.3675 38.2168 38.2373L38.5977 38.7598C38.5586 38.8932 38.4919 39.0365 38.3975 39.1895C38.3031 39.3424 38.1794 39.4889 38.0264 39.6289C37.8766 39.7656 37.696 39.8779 37.4844 39.9658C37.276 40.0537 37.0352 40.0977 36.7617 40.0977C36.4167 40.0977 36.109 40.0293 35.8389 39.8926C35.5687 39.7526 35.3571 39.5654 35.2041 39.3311C35.0511 39.0934 34.9746 38.8249 34.9746 38.5254C34.9746 38.2454 35.0267 37.998 35.1309 37.7832C35.2383 37.5651 35.3945 37.3828 35.5996 37.2363C35.8079 37.0898 36.0618 36.9792 36.3613 36.9043C36.6608 36.8262 37.0026 36.7871 37.3867 36.7871H38.3096ZM41.7324 35.7227V40H40.5557V34.7168H41.6787L41.7324 35.7227ZM43.3486 34.6826L43.3389 35.7764C43.2673 35.7633 43.1891 35.7536 43.1045 35.7471C43.0231 35.7406 42.9417 35.7373 42.8604 35.7373C42.6585 35.7373 42.4811 35.7666 42.3281 35.8252C42.1751 35.8805 42.0465 35.9619 41.9424 36.0693C41.8415 36.1735 41.7633 36.3005 41.708 36.4502C41.6527 36.5999 41.6201 36.7676 41.6104 36.9531L41.3418 36.9727C41.3418 36.6406 41.3743 36.333 41.4395 36.0498C41.5046 35.7666 41.6022 35.5176 41.7324 35.3027C41.8659 35.0879 42.0319 34.9202 42.2305 34.7998C42.4323 34.6794 42.665 34.6191 42.9287 34.6191C43.0003 34.6191 43.0768 34.6257 43.1582 34.6387C43.2428 34.6517 43.3063 34.6663 43.3486 34.6826Z" fill="#454D46"/>
<rect x="14" y="11" width="20" height="13" fill="#454D46"/>
</svg>
