<svg width="35" height="35" viewBox="0 0 35 35" fill="none" xmlns="http://www.w3.org/2000/svg">
<path d="M30.4648 6.61625C29.7318 5.88287 28.8614 5.30111 27.9035 4.90419C26.9456 4.50727 25.9189 4.30298 24.882 4.30298C23.845 4.30298 22.8183 4.50727 21.8604 4.90419C20.9024 5.30111 20.0321 5.88287 19.2991 6.61625L17.7778 8.13754L16.2565 6.61625C14.7758 5.13558 12.7676 4.30375 10.6736 4.30375C8.57963 4.30375 6.57141 5.13558 5.09074 6.61625C3.61008 8.09692 2.77824 10.1051 2.77824 12.1991C2.77824 14.2931 3.61008 16.3013 5.09074 17.782L6.61204 19.3033L17.7778 30.469L28.9435 19.3033L30.4648 17.782C31.1982 17.049 31.78 16.1786 32.1769 15.2207C32.5738 14.2628 32.7781 13.236 32.7781 12.1991C32.7781 11.1622 32.5738 10.1355 32.1769 9.17754C31.78 8.21962 31.1982 7.34928 30.4648 6.61625V6.61625Z" fill="#A4A3CC" stroke="#A4A3CC" stroke-width="2" stroke-linecap="round" stroke-linejoin="round"/>
</svg>
