<svg width="33" height="35" viewBox="0 0 33 35" fill="none" xmlns="http://www.w3.org/2000/svg">
<path d="M3.45912 4.31604H11.5157C12.9402 4.31604 14.3064 4.92234 15.3136 6.00156C16.3209 7.08078 16.8868 8.54451 16.8868 10.0708V30.2123C16.8868 29.0676 16.4624 27.9698 15.7069 27.1604C14.9515 26.351 13.9269 25.8962 12.8585 25.8962H3.45912V4.31604Z" fill="white" stroke="white" stroke-width="2" stroke-linecap="round" stroke-linejoin="round"/>
<path d="M30.3145 4.31604H22.2579C20.8334 4.31604 19.4672 4.92234 18.4599 6.00156C17.4527 7.08078 16.8868 8.54451 16.8868 10.0708V30.2123C16.8868 29.0676 17.3112 27.9698 18.0667 27.1604C18.8221 26.351 19.8467 25.8962 20.9151 25.8962H30.3145V4.31604Z" fill="white" stroke="white" stroke-width="2" stroke-linecap="round" stroke-linejoin="round"/>
</svg>
